<?xml version="1.0" standalone="no"?>
<!DOCTYPE svg PUBLIC "-//W3C//DTD SVG 20010904//EN"
 "http://www.w3.org/TR/2001/REC-SVG-20010904/DTD/svg10.dtd">
<svg version="1.0" xmlns="http://www.w3.org/2000/svg"
 width="612.000000pt" height="612.000000pt" viewBox="0 0 612.000000 612.000000"
 preserveAspectRatio="xMidYMid meet">

<g transform="translate(0.000000,612.000000) scale(0.100000,-0.100000)"
fill="#000000" stroke="none">
<path d="M2807 5493 c-1233 -2 -1636 -6 -1631 -15 4 -7 3 -8 -5 -4 -20 13
-139 -52 -124 -68 3 -3 -1 -6 -9 -6 -8 0 -29 -27 -47 -60 -31 -57 -32 -64 -38
-223 -3 -90 -3 -176 1 -191 l7 -27 164 3 c104 2 166 -1 168 -7 1 -5 2 -53 2
-105 l0 -95 -173 -3 -173 -2 2 -243 1 -242 166 0 167 0 5 -95 c3 -52 3 -99 0
-105 -3 -6 -70 -10 -170 -10 l-165 0 0 -240 0 -240 169 -2 170 -2 -2 -103 -1
-103 -169 -3 -170 -2 2 -238 1 -237 168 0 c92 0 168 -2 168 -5 5 -21 5 -201 0
-207 -3 -4 -80 -8 -171 -8 l-165 0 -3 -242 -2 -243 169 0 169 0 4 -97 c2 -54
2 -101 0 -105 -2 -5 -77 -8 -167 -8 l-163 0 -6 -26 c-4 -15 -6 -122 -5 -240
l1 -214 170 -2 170 -3 0 -103 0 -104 -165 1 c-140 2 -165 0 -171 -14 -3 -8 -4
-93 -3 -188 2 -146 6 -178 22 -212 36 -75 114 -151 143 -140 7 2 11 1 8 -4
-17 -27 143 -29 2049 -32 l1970 -4 57 28 c61 30 105 73 140 140 l23 42 0 2220
0 2220 -28 57 c-34 70 -94 121 -171 148 -51 19 -80 20 -388 18 -183 -2 -1070
-4 -1971 -5z m2023 -158 c59 -20 127 -86 159 -155 26 -55 26 -57 26 -300 l0
-245 120 -5 120 -5 3 -282 2 -282 -115 -112 c-63 -62 -115 -116 -115 -121 0
-4 52 -8 115 -8 l115 0 0 -279 0 -278 -119 -114 c-66 -62 -117 -117 -115 -121
3 -5 57 -8 120 -8 l114 0 0 -277 0 -278 -120 -115 -120 -115 -3 -620 c-2 -702
1 -674 -83 -761 -60 -61 -118 -85 -221 -92 -92 -5 -95 -3 -65 51 16 30 17 156
17 2247 0 2082 -1 2217 -17 2249 -10 18 -15 38 -11 44 8 14 137 2 193 -18z
m-1857 -692 c-7 -2 -21 -2 -30 0 -10 3 -4 5 12 5 17 0 24 -2 18 -5z m55 -34
c45 -11 87 -17 94 -13 7 5 8 3 3 -6 -6 -9 -2 -10 15 -5 13 4 20 3 17 -2 -3 -5
11 -15 31 -22 41 -15 183 -93 221 -122 114 -89 223 -219 285 -341 17 -35 20
-36 33 -20 13 15 13 14 3 -7 -9 -18 -9 -30 0 -50 39 -84 61 -190 67 -318 6
-134 -9 -306 -29 -330 -6 -7 -8 -20 -4 -28 3 -8 1 -15 -4 -15 -6 0 -10 -9 -10
-19 0 -11 -5 -23 -11 -27 -6 -3 -8 -18 -5 -33 3 -14 3 -20 0 -13 -4 8 -18 -10
-36 -44 -38 -73 -95 -161 -108 -169 -6 -4 -10 11 -10 39 0 73 -25 91 -279 206
-123 56 -227 98 -231 93 -4 -4 -27 -74 -51 -155 -45 -155 -55 -168 -89 -125
l-18 22 -36 -40 c-19 -22 -35 -43 -36 -47 0 -4 11 -15 25 -24 25 -16 25 -16
25 -180 l0 -164 -80 0 -80 0 0 161 c0 160 0 162 25 183 l25 22 -31 42 c-17 23
-34 42 -39 42 -4 0 -14 -10 -22 -22 -27 -40 -43 -15 -87 133 -24 79 -47 148
-51 152 -4 5 -108 -37 -231 -93 -249 -113 -279 -135 -279 -200 0 -21 -4 -42
-10 -45 -5 -3 -10 -2 -10 2 0 5 -17 36 -38 69 -71 109 -99 171 -127 274 -9 36
-21 75 -26 87 -15 40 -4 351 15 417 9 33 14 66 11 73 -2 8 0 11 5 8 6 -3 10 1
10 10 0 8 4 23 9 33 37 69 51 107 46 121 -3 8 -3 12 1 8 4 -4 19 10 32 31 14
20 28 39 32 42 3 3 15 19 25 37 26 41 109 128 170 178 230 188 556 263 843
194z m702 -493 c0 -2 -8 -10 -17 -17 -16 -13 -17 -12 -4 4 13 16 21 21 21 13z
m97 -218 c-3 -8 -6 -5 -6 6 -1 11 2 17 5 13 3 -3 4 -12 1 -19z m0 -90 c-3 -8
-6 -5 -6 6 -1 11 2 17 5 13 3 -3 4 -12 1 -19z m0 -350 c-3 -8 -6 -5 -6 6 -1
11 2 17 5 13 3 -3 4 -12 1 -19z m-1965 -235 c-3 -16 -7 -22 -10 -15 -4 13 4
42 11 42 2 0 2 -12 -1 -27z m855 -599 c-3 -3 -12 -4 -19 -1 -8 3 -5 6 6 6 11
1 17 -2 13 -5z m1085 -462 c1 -26 2 -64 0 -84 l-3 -38 -990 0 -989 0 0 83 c0
46 2 86 4 88 2 2 448 3 989 1 l985 -2 4 -48z m0 -584 c-1 -67 1 -78 16 -79 14
0 14 -2 -3 -9 -11 -5 -464 -9 -1007 -9 l-987 -1 -3 86 c-2 47 -1 88 1 90 3 2
450 3 994 2 l990 -3 -1 -77z"/>
<path d="M2690 4325 c-73 -21 -136 -61 -171 -110 -41 -57 -63 -156 -54 -240
l7 -67 41 6 c79 12 155 84 178 169 10 38 11 39 25 18 23 -32 131 -102 204
-132 83 -33 205 -63 221 -54 16 11 4 144 -22 221 -24 76 -70 131 -140 169 -47
25 -66 30 -144 32 -58 2 -110 -3 -145 -12z"/>
</g>
</svg>
