<svg width="79" height="83" viewBox="0 0 79 83" fill="none" xmlns="http://www.w3.org/2000/svg">
  <path d="M0.123824 33.642H22.9075H23.0313H23.1552C23.8981 33.642 24.7649 33.8876 25.2602 34.5015L25.384 34.6243L25.5078 34.747L37.0235 45.429L37.2711 45.6746L37.395 45.7973C38.757 46.9024 40.4906 47.639 42.3479 47.639C44.5768 47.639 46.5579 46.6568 47.92 45.1834L58.8166 35.4837L58.9404 35.3609C59.188 34.9926 59.5595 34.747 60.0548 34.747C60.6739 34.747 61.1692 35.1154 61.293 35.7293C61.5407 36.2204 61.7883 36.8343 61.9122 37.3254L66.1222 49.4808C66.246 49.8491 66.3698 50.2175 66.3698 50.5858C66.3698 52.4275 64.8839 53.7781 63.1504 53.7781H22.6599H21.6693H21.5454C19.6881 53.7781 18.326 52.3047 18.326 50.5858C18.326 50.3402 18.326 50.2175 18.4498 49.9719V49.8491L22.9075 36.8343H12.3824L7.05799 52.0592C6.93416 52.3047 6.93416 52.6731 6.81034 52.9186C6.56269 53.6553 6.43887 54.392 6.43887 55.2515C6.43887 59.3033 9.6583 62.6183 13.6207 62.8639H13.9922H70.0846H70.3322C74.5423 62.8639 78.0093 59.426 78.0093 55.3743C78.0093 54.392 77.8855 53.5325 77.514 52.6731L69.4654 29.3447C69.2178 28.608 68.8463 27.9941 68.351 27.503C66.7413 25.4157 64.141 24.0651 61.1692 24.0651C58.6927 24.0651 56.5877 25.0473 54.978 26.5207C51.2633 29.5902 47.3009 33.5192 43.3385 36.2204C43.0909 36.3432 42.967 36.466 42.7194 36.5888C42.3479 36.7115 42.1003 36.7115 41.7288 36.5888L40.9859 35.8521L29.7178 25.1701C29.0987 24.4334 28.2319 23.9423 27.2414 23.9423H26.9937L31.0799 11.2959L31.2037 11.0503C31.2037 10.9275 31.3276 10.8047 31.3276 10.682C31.4514 10.5592 31.5752 10.3136 31.699 10.1908C32.0705 9.82248 32.5658 9.33136 33.1849 9.33136C33.3087 9.33136 33.5564 9.33136 33.6802 9.33136C33.804 9.33136 33.9279 9.33136 34.1755 9.33136H36.1567H62.5313L59.3119 0H30.7084C27.1175 0.245562 23.7743 2.94675 22.4122 7.24408L16.7163 24.0651H0.742946H0L0.123824 33.642Z" fill="#009E4A"/>
  <path d="M17.8311 69.4941C16.0975 69.4941 14.7354 70.108 13.4972 71.3358C12.259 72.5636 11.6398 74.1598 11.6398 76.0015C11.6398 77.8432 12.259 79.4394 13.4972 80.9128C14.7354 82.2634 16.2213 83 17.9549 83C19.6884 83 21.1743 82.2634 22.4126 80.9128C23.6508 79.5622 24.2699 77.966 24.2699 76.0015C24.2699 74.1598 23.6508 72.5636 22.4126 71.3358C20.9267 70.108 19.4408 69.4941 17.8311 69.4941ZM19.8122 78.2116C19.3169 78.8255 18.574 79.1938 17.8311 79.1938C17.0881 79.1938 16.3452 78.8255 15.8499 78.2116C15.3546 77.5977 15.1069 76.861 15.1069 76.0015C15.1069 75.2648 15.3546 74.5281 15.9737 73.9142C16.5928 73.3003 17.2119 73.0548 17.9549 73.0548C18.6978 73.0548 19.3169 73.3003 19.9361 73.9142C20.5552 74.4054 20.8028 75.142 20.8028 76.0015C20.5552 76.861 20.3075 77.5977 19.8122 78.2116ZM8.54423 75.756C8.9157 75.3876 9.28717 75.0193 9.53482 74.5281C9.78247 74.037 9.90629 73.4231 9.90629 72.8092C9.90629 71.827 9.53482 71.0903 8.9157 70.5991C8.17275 69.9852 7.42981 69.7397 6.68686 69.7397H1.73389V82.6317H5.32479V73.1775H6.19156C6.43921 73.1775 6.56304 73.1776 6.68686 73.3003C6.81068 73.4231 6.93451 73.5459 6.93451 73.7915C6.93451 74.037 6.81068 74.2826 6.68686 74.4054C6.56304 74.5281 6.31539 74.5281 6.19156 74.5281H5.94391C5.94391 74.5281 5.94391 74.5281 5.82009 74.5281V77.966H6.68686C6.81068 77.966 6.93451 77.966 7.05833 78.0888C7.18216 78.2116 7.18216 78.3344 7.18216 78.5799C7.18216 78.8255 7.05833 78.9483 6.93451 79.071C6.81068 79.1938 6.68686 79.1938 6.43921 79.1938H5.82009V82.5089H6.68686C7.80128 82.5089 8.66805 82.1406 9.411 81.5267C10.1539 80.9128 10.5254 79.9305 10.5254 78.8255C10.5254 78.0888 10.4016 77.4749 10.0301 76.9838C9.65864 76.4926 9.16335 76.0015 8.54423 75.756ZM34.6712 75.756C34.9188 75.142 35.0426 74.5281 35.0426 73.7915C35.0426 72.5636 34.6712 71.5814 33.8044 70.8447C32.9376 70.108 31.947 69.6169 30.9564 69.6169H26.0035V82.5089H29.5944V73.0548H30.4611H30.585C30.8326 73.0548 31.0803 73.1776 31.3279 73.3003C31.5756 73.4231 31.5756 73.6687 31.5756 73.9142C31.5756 74.2826 31.4517 74.6509 31.2041 74.7737C30.9564 74.8965 30.7088 75.0193 30.3373 75.0193H30.2135C30.2135 75.0193 30.2135 75.0193 30.0897 75.0193V78.3344L31.8232 82.5089H35.5379L33.5567 77.3521C34.052 76.861 34.4235 76.3699 34.6712 75.756ZM37.0238 82.6317H40.6147V69.7397H37.0238V82.6317ZM52.2542 69.4941H52.0066C51.5113 69.4941 50.8921 69.7397 50.3969 69.9852C49.9016 70.3536 49.5301 70.7219 49.2824 71.2131C48.911 70.5991 48.5395 70.2308 48.0442 69.8625C47.5489 69.4941 46.9298 69.3713 46.3106 69.3713C45.4439 69.3713 44.7009 69.7397 43.958 70.4764C43.215 71.2131 42.9674 71.9497 42.9674 72.932V82.6317H46.5583V74.1598C46.5583 74.037 46.5583 73.7915 46.6821 73.6687C46.8059 73.5459 46.9298 73.4231 47.0536 73.4231C47.1774 73.4231 47.3012 73.5459 47.4251 73.6687C47.5489 73.7915 47.5489 73.9142 47.5489 74.1598V82.7545H51.1398V74.1598C51.1398 74.037 51.2636 73.7915 51.2636 73.6687C51.3874 73.5459 51.5113 73.4231 51.6351 73.4231C51.7589 73.4231 51.8827 73.5459 52.0066 73.6687C52.1304 73.7915 52.1304 73.9142 52.1304 74.1598V82.7545H55.7213V73.6687C55.7213 72.5636 55.4736 71.5814 54.8545 70.7219C54.2354 69.8625 53.3686 69.4941 52.2542 69.4941ZM77.8858 72.3181C77.1429 71.2131 76.1523 70.4764 75.0379 69.9852C74.6664 69.8625 74.4188 69.7397 74.0473 69.7397C73.6758 69.7397 73.3044 69.6169 73.0567 69.6169H67.7323V82.5089H71.3232V73.4231H73.0567C73.6758 73.4231 74.2949 73.6687 74.7902 74.1598C75.2855 74.6509 75.5332 75.2648 75.5332 76.0015C75.5332 76.861 75.2855 77.4749 74.6664 77.966C74.0473 78.4571 73.4282 78.7027 72.6852 78.5799H71.8185V82.3861C71.9423 82.3861 72.0661 82.3861 72.0661 82.3861C72.1899 82.3861 72.1899 82.3861 72.3138 82.3861C72.4376 82.3861 72.5614 82.3861 72.5614 82.3861H72.8091C74.5426 82.3861 76.0285 81.7722 77.2667 80.5444C78.505 79.3166 79.0003 77.7205 79.0003 75.756C79.0003 74.6509 78.6288 73.4231 77.8858 72.3181ZM59.1884 70.7219C58.4454 71.4586 58.1978 72.1953 58.1978 73.1775V78.8255C58.1978 79.3166 58.3216 79.8077 58.4454 80.2989C58.6931 80.79 58.9407 81.1583 59.3122 81.5267C59.6837 81.895 60.179 82.1406 60.6743 82.2633C61.1696 82.3861 61.6649 82.3861 62.1602 82.3861H65.1319V78.7027H62.5316C62.284 78.7027 62.1602 78.7027 62.0363 78.5799C61.9125 78.4571 61.7887 78.3344 61.7887 78.0888C61.7887 77.8432 61.9125 77.5977 62.0363 77.5977C62.1602 77.4749 62.4078 77.4749 62.6555 77.4749H65.0081V74.5281H62.6555C62.5316 74.5281 62.284 74.4054 62.1602 74.4054C62.0363 74.2826 61.9125 74.1598 61.9125 73.9142C61.9125 73.6687 62.0363 73.5459 62.1602 73.4231C62.284 73.3003 62.5316 73.3003 62.6555 73.3003H65.0081V69.6169H61.541C60.6743 69.7397 59.9313 70.108 59.1884 70.7219Z" fill="#009E4A"/>
</svg>
